<svg width="64" height="64" viewBox="0 0 64 64" fill="none" xmlns="http://www.w3.org/2000/svg">
<path d="M6.92628 17.5139C4.32623 21.9303 2.98385 26.9749 3.04471 32.1006C2.99256 37.248 4.33388 42.3135 6.92628 46.7594C9.49012 51.1521 13.1432 54.8083 17.5321 57.3744C21.9812 59.9202 27.0172 61.2594 32.1421 61.2594C37.267 61.2594 42.303 59.9202 46.7521 57.3744C51.1443 54.8125 54.7982 51.1554 57.3579 46.7594C59.9503 42.3135 61.2916 37.248 61.2395 32.1006C61.3003 26.9749 59.958 21.9303 57.3579 17.5139C54.8192 13.1018 51.1603 9.43981 46.7521 6.89891C42.303 4.35311 37.267 3.01392 32.1421 3.01392C27.0172 3.01392 21.9812 4.35311 17.5321 6.89891C13.1272 9.44421 9.46939 13.1052 6.92628 17.5139Z" fill="#5287DD"/>
<path d="M29.9705 0.125638C35.24 0.0486377 40.4299 1.41714 44.9773 4.08284C47.925 5.90764 50.5729 8.17784 52.8271 10.8128C55.5069 13.0696 57.8023 15.7476 59.6235 18.7417C62.2192 23.3108 63.584 28.4767 63.584 33.7327C63.584 38.9888 62.2192 44.1546 59.6235 48.7237C57.0057 53.2569 53.2438 57.0221 48.7146 59.6421C44.1495 62.2401 38.9882 63.606 33.7367 63.606C28.4852 63.606 23.3238 62.2401 18.7587 59.6421C15.7609 57.8872 13.0822 55.636 10.8368 52.9843C5.46336 48.4336 1.8496 42.145 0.621535 35.208C-0.606535 28.271 0.62847 21.1226 4.1126 15.0011C6.81958 10.5373 10.5615 6.79214 15.0214 4.08284C19.5537 1.43144 24.7211 0.0635377 29.9705 0.125638ZM4.7908 15.3766C2.15833 19.7933 0.790511 24.8496 0.837068 29.9922C0.788576 35.141 2.13495 40.2069 4.73307 44.6511C7.29232 49.0511 10.9461 52.7131 15.3388 55.2805C19.7879 57.8263 24.824 59.1654 29.9489 59.1654C35.0737 59.1654 40.1098 57.8263 44.5589 55.2805C48.9488 52.7094 52.6018 49.0483 55.1647 44.6511C57.7584 40.2057 59.0998 35.1398 59.0463 29.9922C59.1074 24.871 57.7649 19.8309 55.1647 15.4199C52.6259 11.0079 48.9671 7.34594 44.5589 4.80494C40.1131 2.24934 35.0757 0.904536 29.9489 0.904536C24.822 0.904536 19.7847 2.24934 15.3388 4.80494C10.9544 7.33824 7.31583 10.9849 4.7908 15.3766Z" fill="#2B2B2B"/>
</svg>
